Coordinates
version=1
nRows=27
nColumns=38
inDegrees=no

Units are S.I. units (second, meters, Newtons, ...)
If the header above contains a line with 'inDegrees', this indicates whether rotational values are in degrees (yes) or radians (no).

endheader
time	pelvis_tilt	pelvis_list	pelvis_rotation	pelvis_tx	pelvis_ty	pelvis_tz	hip_flexion_r	hip_adduction_r	hip_rotation_r	knee_angle_r	ankle_angle_r	subtalar_angle_r	mtp_angle_r	hip_flexion_l	hip_adduction_l	hip_rotation_l	knee_angle_l	ankle_angle_l	subtalar_angle_l	mtp_angle_l	lumbar_extension	lumbar_bending	lumbar_rotation	arm_flex_r	arm_add_r	arm_rot_r	elbow_flex_r	pro_sup_r	wrist_flex_r	wrist_dev_r	arm_flex_l	arm_add_l	arm_rot_l	elbow_flex_l	pro_sup_l	wrist_flex_l	wrist_dev_l
25	3.00802	1.38637	-1.38867	0.679978	0.371579	1.04418	-0.101733	0.00117742	-0.18462	0.273505	-0.431967	0	0	-0.178732	-0.166427	-0.38448	0.28233	-0.322958	0	0	-0.475342	0.0795994	-0.0524213	0.1198	-0.372315	0.590618	0.526197	0.998942	0	0	0.0339312	-0.143602	-0.172057	0.213011	1.5708	0	0
25.01	3.00553	1.37505	-1.38367	0.680107	0.373826	1.04535	-0.13	0.00757181	-0.18566	0.243691	-0.447609	0	0	-0.198543	-0.168015	-0.383988	0.269858	-0.328308	0	0	-0.478291	0.0782649	-0.0532563	0.113271	-0.368612	0.595009	0.521264	0.996507	0	0	0.0353107	-0.144584	-0.163351	0.210096	1.5708	0	0
25.02	3.0034	1.36555	-1.37912	0.680212	0.376094	1.04633	-0.155776	0.0133752	-0.186519	0.215209	-0.457141	0	0	-0.216282	-0.169313	-0.383718	0.258023	-0.331563	0	0	-0.479428	0.0764664	-0.0531607	0.105593	-0.36435	0.595627	0.51608	0.996372	0	0	0.0366894	-0.146202	-0.147342	0.207241	1.5708	0	0
25.03	3.00059	1.35971	-1.37427	0.680336	0.378401	1.04692	-0.176407	0.018096	-0.188591	0.191808	-0.45847	0	0	-0.229282	-0.170521	-0.384619	0.24867	-0.332329	0	0	-0.476993	0.0738317	-0.0523117	0.0971862	-0.359293	0.594121	0.509896	0.997944	0	0	0.0371082	-0.14842	-0.126329	0.205871	1.5708	0	0
25.04	2.99506	1.35861	-1.36819	0.680484	0.380568	1.04704	-0.186931	0.0210533	-0.190641	0.180129	-0.456499	0	0	-0.235706	-0.171659	-0.387377	0.243358	-0.331778	0	0	-0.471581	0.0706608	-0.0515364	0.0894803	-0.354646	0.591301	0.505319	0.999741	0	0	0.0359149	-0.150486	-0.106746	0.207343	1.5708	0	0
25.05	2.99043	1.35552	-1.36313	0.680602	0.38287	1.04731	-0.201769	0.0247803	-0.192568	0.162854	-0.459578	0	0	-0.245387	-0.172652	-0.390443	0.236015	-0.332532	0	0	-0.467131	0.0678369	-0.0517819	0.0845505	-0.350616	0.598675	0.497988	0.994531	0	0	0.0366878	-0.147416	-0.13186	0.204297	1.5708	0	0
25.06	2.99402	1.34338	-1.36354	0.680464	0.385255	1.04832	-0.234442	0.0310393	-0.194571	0.126122	-0.481255	0	0	-0.2676	-0.172787	-0.389211	0.22095	-0.338434	0	0	-0.470025	0.0671182	-0.0588507	0.0869519	-0.348048	0.629546	0.487444	0.975161	0	0	0.0352489	-0.14459	-0.159992	0.20152	1.5708	0	0
25.07	2.99843	1.334	-1.36442	0.680294	0.38745	1.04909	-0.261904	0.0361444	-0.197247	0.0945978	-0.505398	0	0	-0.285665	-0.172318	-0.386197	0.207753	-0.344811	0	0	-0.470936	0.065823	-0.0656543	0.0907198	-0.347426	0.671671	0.478002	0.941478	0	0	0.0327719	-0.144433	-0.165209	0.201207	1.5708	0	0
25.08	3.00194	1.32657	-1.36506	0.680159	0.389618	1.04965	-0.286645	0.0408353	-0.197902	0.0647503	-0.522589	0	0	-0.300679	-0.17198	-0.384186	0.197154	-0.348395	0	0	-0.470455	0.0640037	-0.0697821	0.0914174	-0.346054	0.703436	0.469992	0.914649	0	0	0.0311794	-0.144851	-0.163147	0.200941	1.5708	0	0
25.09	3.00549	1.32006	-1.36638	0.680065	0.391749	1.05007	-0.310927	0.0452621	-0.195353	0.0333289	-0.541988	0	0	-0.313984	-0.171656	-0.383189	0.188377	-0.351536	0	0	-0.469353	0.0617332	-0.0728542	0.0913831	-0.344645	0.732933	0.462756	0.888665	0	0	0.0297232	-0.145387	-0.159678	0.200861	1.5708	0	0
25.1	3.01076	1.315	-1.36994	0.679998	0.393842	1.05028	-0.333186	0.0486097	-0.192845	0.0045162	-0.558118	0	0	-0.325008	-0.170787	-0.382961	0.181387	-0.354055	0	0	-0.467095	0.0585721	-0.0750213	0.0906542	-0.343411	0.760876	0.456337	0.862753	0	0	0.0284222	-0.145976	-0.155803	0.201022	1.5708	0	0
25.11	3.01436	1.3131	-1.37285	0.679958	0.395718	1.05022	-0.344823	0.049901	-0.194267	0	-0.559379	0	0	-0.330878	-0.170029	-0.383928	0.178197	-0.354187	0	0	-0.463443	0.054849	-0.0743874	0.0861229	-0.340621	0.768711	0.451129	0.855486	0	0	0.028347	-0.14617	-0.153228	0.202013	1.5708	0	0
25.12	3.01841	1.31052	-1.37528	0.679818	0.397401	1.05022	-0.35548	0.0510993	-0.197101	0	-0.55996	0	0	-0.336697	-0.169547	-0.3831	0.175445	-0.354504	0	0	-0.461295	0.0517011	-0.0743486	0.082384	-0.337766	0.776467	0.445627	0.848264	0	0	0.0289337	-0.146543	-0.149955	0.203083	1.5708	0	0
25.13	3.02225	1.30768	-1.37763	0.679676	0.399042	1.05022	-0.366389	0.0524381	-0.199413	0	-0.560377	0	0	-0.342617	-0.169265	-0.382892	0.172958	-0.354844	0	0	-0.459557	0.0485921	-0.0739264	0.0787128	-0.334808	0.783786	0.43956	0.841456	0	0	0.0295614	-0.146932	-0.146875	0.204379	1.5708	0	0
25.14	3.02845	1.30398	-1.3825	0.679507	0.400494	1.05023	-0.377691	0.0530064	-0.199978	0	-0.55894	0	0	-0.34913	-0.168507	-0.383158	0.170894	-0.355431	0	0	-0.45927	0.0451041	-0.0734302	0.0757731	-0.332271	0.792405	0.433772	0.834192	0	0	0.0305268	-0.147352	-0.144133	0.205914	1.5708	0	0
25.15	3.03601	1.29981	-1.38914	0.679328	0.4017	1.05028	-0.388351	0.0527985	-0.198534	0	-0.55634	0	0	-0.355779	-0.16727	-0.383552	0.169258	-0.356278	0	0	-0.460403	0.0413939	-0.0727747	0.0739508	-0.330083	0.802222	0.428234	0.826526	0	0	0.0319833	-0.147787	-0.14199	0.207606	1.5708	0	0
25.16	3.04283	1.2965	-1.39356	0.679179	0.402932	1.05025	-0.399483	0.0537881	-0.203052	0	-0.555352	0	0	-0.360809	-0.166883	-0.382296	0.168291	-0.357099	0	0	-0.460883	0.0381902	-0.0732232	0.0722232	-0.327407	0.812413	0.422232	0.818146	0	0	0.0334041	-0.148612	-0.14055	0.209072	1.5708	0	0
25.17	3.048	1.29342	-1.39666	0.679042	0.4041	1.05022	-0.40841	0.0546964	-0.207101	0	-0.555444	0	0	-0.365301	-0.166939	-0.381719	0.167915	-0.35765	0	0	-0.461523	0.0354361	-0.0734385	0.0706548	-0.324653	0.820962	0.416278	0.811169	0	0	0.0348062	-0.149351	-0.13964	0.210482	1.5708	0	0
25.18	3.05277	1.28995	-1.39948	0.678846	0.405	1.05028	-0.41537	0.055157	-0.209512	0	-0.555938	0	0	-0.36962	-0.167034	-0.380654	0.168132	-0.358037	0	0	-0.46336	0.0331389	-0.0737263	0.0702516	-0.322098	0.830429	0.410265	0.804165	0	0	0.0367142	-0.150032	-0.138655	0.21177	1.5708	0	0
25.19	3.05573	1.28654	-1.40191	0.678681	0.405758	1.05035	-0.421114	0.055226	-0.209464	0	-0.556012	0	0	-0.37399	-0.167073	-0.381103	0.168319	-0.358061	0	0	-0.465653	0.0311744	-0.0731224	0.0706213	-0.320097	0.840365	0.404569	0.796747	0	0	0.0386308	-0.150485	-0.137744	0.212917	1.5708	0	0
25.2	3.05629	1.28331	-1.40372	0.678598	0.406387	1.05043	-0.425594	0.0549426	-0.206365	0	-0.555373	0	0	-0.378427	-0.167103	-0.383591	0.168426	-0.358065	0	0	-0.468203	0.0294733	-0.0710158	0.0715416	-0.318502	0.850334	0.398993	0.788534	0	0	0.0405943	-0.150603	-0.137134	0.214048	1.5708	0	0
25.21	3.05833	1.27673	-1.40616	0.678598	0.407011	1.05067	-0.434497	0.0555144	-0.205638	0	-0.553005	0	0	-0.386675	-0.167919	-0.387498	0.168142	-0.359983	0	0	-0.463218	0.0293638	-0.0969599	0.148671	-0.333916	1.26282	0.383552	0.408291	0	0	0.025543	-0.151713	-0.161528	0.216266	1.5708	0	0
25.22	3.06068	1.27431	-1.40711	0.678447	0.40769	1.05069	-0.438551	0.0558766	-0.208196	0	-0.551857	0	0	-0.389308	-0.168564	-0.387956	0.169322	-0.359839	0	0	-0.464712	0.0281943	-0.0958191	0.147098	-0.331578	1.27066	0.378913	0.399885	0	0	0.0282478	-0.152473	-0.156706	0.215894	1.5708	0	0
25.23	3.06222	1.27297	-1.40789	0.678311	0.408368	1.05064	-0.441392	0.0559907	-0.209758	0	-0.550198	0	0	-0.391041	-0.168925	-0.388964	0.170291	-0.359467	0	0	-0.465197	0.0270829	-0.0941087	0.14467	-0.329505	1.27415	0.374796	0.396429	0	0	0.0307108	-0.153124	-0.151506	0.215383	1.5708	0	0
25.24	3.06302	1.27238	-1.40812	0.678204	0.40908	1.05053	-0.443378	0.0562132	-0.211176	0	-0.548495	0	0	-0.392242	-0.169271	-0.38974	0.170681	-0.359296	0	0	-0.464866	0.0261102	-0.0925275	0.141896	-0.327507	1.27573	0.371149	0.395285	0	0	0.0324279	-0.153808	-0.146285	0.215236	1.5708	0	0
25.25	3.06326	1.27212	-1.40698	0.678056	0.409837	1.05042	-0.444528	0.0569172	-0.213344	0	-0.547488	0	0	-0.392914	-0.170093	-0.389392	0.171059	-0.359157	0	0	-0.464133	0.0257232	-0.0918805	0.138833	-0.325363	1.27566	0.367576	0.394964	0	0	0.0335	-0.154641	-0.140657	0.21538	1.5708	0	0
25.26	3.06259	1.27201	-1.40455	0.67787	0.410579	1.05032	-0.444967	0.0579951	-0.215349	0	-0.546676	0	0	-0.393272	-0.171297	-0.388458	0.171345	-0.359132	0	0	-0.463241	0.0259197	-0.0914343	0.135442	-0.323252	1.27429	0.364204	0.395335	0	0	0.0344054	-0.155415	-0.134977	0.215856	1.5708	0	0
